<mxfile host="app.diagrams.net" modified="2024-01-29T22:47:15.237Z" agent="Mozilla/5.0 (Windows NT 10.0; Win64; x64) AppleWebKit/537.36 (KHTML, like Gecko) Chrome/120.0.0.0 Safari/537.36" etag="1Zm3cxstbDoqZO8qwuQN" version="22.1.16" type="google">
  <diagram name="Page-1" id="tSfX3xsUCQF1cEc4GhcM">
    <mxGraphModel grid="1" page="1" gridSize="10" guides="1" tooltips="1" connect="1" arrows="1" fold="1" pageScale="1" pageWidth="827" pageHeight="1169" math="0" shadow="0">
      <root>
        <mxCell id="0" />
        <mxCell id="1" parent="0" />
        <mxCell id="f8Rt-xZDq5341HS5hOmq-28" style="edgeStyle=orthogonalEdgeStyle;rounded=0;orthogonalLoop=1;jettySize=auto;html=1;exitX=0.5;exitY=1;exitDx=0;exitDy=0;entryX=0.5;entryY=0;entryDx=0;entryDy=0;strokeWidth=1;" edge="1" parent="1" source="f8Rt-xZDq5341HS5hOmq-1" target="f8Rt-xZDq5341HS5hOmq-7">
          <mxGeometry relative="1" as="geometry" />
        </mxCell>
        <mxCell id="f8Rt-xZDq5341HS5hOmq-1" value="T-BASIC-01" style="ellipse;whiteSpace=wrap;html=1;aspect=fixed;fillColor=#dae8fc;strokeColor=#6c8ebf;fontStyle=1" vertex="1" parent="1">
          <mxGeometry x="367" width="94" height="94" as="geometry" />
        </mxCell>
        <mxCell id="f8Rt-xZDq5341HS5hOmq-30" style="edgeStyle=orthogonalEdgeStyle;rounded=0;orthogonalLoop=1;jettySize=auto;html=1;exitX=0.5;exitY=1;exitDx=0;exitDy=0;entryX=0.5;entryY=0;entryDx=0;entryDy=0;" edge="1" parent="1" source="f8Rt-xZDq5341HS5hOmq-7" target="f8Rt-xZDq5341HS5hOmq-8">
          <mxGeometry relative="1" as="geometry" />
        </mxCell>
        <mxCell id="f8Rt-xZDq5341HS5hOmq-31" style="edgeStyle=orthogonalEdgeStyle;rounded=0;orthogonalLoop=1;jettySize=auto;html=1;exitX=0.5;exitY=1;exitDx=0;exitDy=0;entryX=0.5;entryY=0;entryDx=0;entryDy=0;" edge="1" parent="1" source="f8Rt-xZDq5341HS5hOmq-7" target="f8Rt-xZDq5341HS5hOmq-9">
          <mxGeometry relative="1" as="geometry">
            <Array as="points">
              <mxPoint x="414" y="220" />
              <mxPoint x="287" y="220" />
            </Array>
          </mxGeometry>
        </mxCell>
        <mxCell id="f8Rt-xZDq5341HS5hOmq-32" style="edgeStyle=orthogonalEdgeStyle;rounded=0;orthogonalLoop=1;jettySize=auto;html=1;exitX=0.5;exitY=1;exitDx=0;exitDy=0;entryX=0.5;entryY=0;entryDx=0;entryDy=0;" edge="1" parent="1" source="f8Rt-xZDq5341HS5hOmq-7" target="f8Rt-xZDq5341HS5hOmq-10">
          <mxGeometry relative="1" as="geometry">
            <Array as="points">
              <mxPoint x="414" y="220" />
              <mxPoint x="537" y="220" />
            </Array>
          </mxGeometry>
        </mxCell>
        <mxCell id="f8Rt-xZDq5341HS5hOmq-7" value="T-BASIC-02" style="ellipse;whiteSpace=wrap;html=1;aspect=fixed;fillColor=#dae8fc;strokeColor=#6c8ebf;fontStyle=1" vertex="1" parent="1">
          <mxGeometry x="367" y="120" width="94" height="94" as="geometry" />
        </mxCell>
        <mxCell id="f8Rt-xZDq5341HS5hOmq-34" style="edgeStyle=orthogonalEdgeStyle;rounded=0;orthogonalLoop=1;jettySize=auto;html=1;exitX=0.5;exitY=1;exitDx=0;exitDy=0;entryX=0.5;entryY=0;entryDx=0;entryDy=0;" edge="1" parent="1" source="f8Rt-xZDq5341HS5hOmq-8" target="f8Rt-xZDq5341HS5hOmq-15">
          <mxGeometry relative="1" as="geometry" />
        </mxCell>
        <mxCell id="f8Rt-xZDq5341HS5hOmq-8" value="T-INT-FUNC-02" style="ellipse;whiteSpace=wrap;html=1;aspect=fixed;fillColor=#dae8fc;strokeColor=#6c8ebf;fontStyle=1" vertex="1" parent="1">
          <mxGeometry x="367" y="240" width="94" height="94" as="geometry" />
        </mxCell>
        <mxCell id="f8Rt-xZDq5341HS5hOmq-33" style="edgeStyle=orthogonalEdgeStyle;rounded=0;orthogonalLoop=1;jettySize=auto;html=1;exitX=0.5;exitY=1;exitDx=0;exitDy=0;entryX=0.5;entryY=0;entryDx=0;entryDy=0;" edge="1" parent="1" source="f8Rt-xZDq5341HS5hOmq-9" target="f8Rt-xZDq5341HS5hOmq-16">
          <mxGeometry relative="1" as="geometry" />
        </mxCell>
        <mxCell id="f8Rt-xZDq5341HS5hOmq-36" style="edgeStyle=orthogonalEdgeStyle;rounded=0;orthogonalLoop=1;jettySize=auto;html=1;exitX=0.5;exitY=1;exitDx=0;exitDy=0;entryX=0.5;entryY=0;entryDx=0;entryDy=0;" edge="1" parent="1" source="f8Rt-xZDq5341HS5hOmq-9" target="f8Rt-xZDq5341HS5hOmq-15">
          <mxGeometry relative="1" as="geometry">
            <Array as="points">
              <mxPoint x="287" y="350" />
              <mxPoint x="414" y="350" />
            </Array>
          </mxGeometry>
        </mxCell>
        <mxCell id="f8Rt-xZDq5341HS5hOmq-9" value="T-INT-FUNC-01" style="ellipse;whiteSpace=wrap;html=1;aspect=fixed;fillColor=#dae8fc;strokeColor=#6c8ebf;fontStyle=1" vertex="1" parent="1">
          <mxGeometry x="240" y="240" width="94" height="94" as="geometry" />
        </mxCell>
        <mxCell id="f8Rt-xZDq5341HS5hOmq-35" style="edgeStyle=orthogonalEdgeStyle;rounded=0;orthogonalLoop=1;jettySize=auto;html=1;exitX=0.5;exitY=1;exitDx=0;exitDy=0;entryX=0.5;entryY=0;entryDx=0;entryDy=0;" edge="1" parent="1" source="f8Rt-xZDq5341HS5hOmq-10" target="f8Rt-xZDq5341HS5hOmq-17">
          <mxGeometry relative="1" as="geometry" />
        </mxCell>
        <mxCell id="f8Rt-xZDq5341HS5hOmq-37" style="edgeStyle=orthogonalEdgeStyle;rounded=0;orthogonalLoop=1;jettySize=auto;html=1;exitX=0.5;exitY=1;exitDx=0;exitDy=0;entryX=0.5;entryY=0;entryDx=0;entryDy=0;" edge="1" parent="1" source="f8Rt-xZDq5341HS5hOmq-10" target="f8Rt-xZDq5341HS5hOmq-15">
          <mxGeometry relative="1" as="geometry">
            <Array as="points">
              <mxPoint x="537" y="350" />
              <mxPoint x="414" y="350" />
            </Array>
          </mxGeometry>
        </mxCell>
        <mxCell id="f8Rt-xZDq5341HS5hOmq-10" value="T-INT-FUNC-03" style="ellipse;whiteSpace=wrap;html=1;aspect=fixed;fillColor=#dae8fc;strokeColor=#6c8ebf;fontStyle=1" vertex="1" parent="1">
          <mxGeometry x="490" y="240" width="94" height="94" as="geometry" />
        </mxCell>
        <mxCell id="f8Rt-xZDq5341HS5hOmq-39" style="edgeStyle=orthogonalEdgeStyle;rounded=0;orthogonalLoop=1;jettySize=auto;html=1;exitX=0.5;exitY=1;exitDx=0;exitDy=0;entryX=0.5;entryY=0;entryDx=0;entryDy=0;" edge="1" parent="1" source="f8Rt-xZDq5341HS5hOmq-15" target="f8Rt-xZDq5341HS5hOmq-18">
          <mxGeometry relative="1" as="geometry" />
        </mxCell>
        <mxCell id="f8Rt-xZDq5341HS5hOmq-15" value="T-INT-FUNC-05" style="ellipse;whiteSpace=wrap;html=1;aspect=fixed;fillColor=#dae8fc;strokeColor=#6c8ebf;fontStyle=1" vertex="1" parent="1">
          <mxGeometry x="367" y="370" width="94" height="94" as="geometry" />
        </mxCell>
        <mxCell id="f8Rt-xZDq5341HS5hOmq-38" style="edgeStyle=orthogonalEdgeStyle;rounded=0;orthogonalLoop=1;jettySize=auto;html=1;exitX=0.5;exitY=1;exitDx=0;exitDy=0;" edge="1" parent="1" source="f8Rt-xZDq5341HS5hOmq-16" target="f8Rt-xZDq5341HS5hOmq-18">
          <mxGeometry relative="1" as="geometry">
            <Array as="points">
              <mxPoint x="287" y="480" />
              <mxPoint x="414" y="480" />
            </Array>
          </mxGeometry>
        </mxCell>
        <mxCell id="f8Rt-xZDq5341HS5hOmq-16" value="T-INT-FUNC-04" style="ellipse;whiteSpace=wrap;html=1;aspect=fixed;fillColor=#dae8fc;strokeColor=#6c8ebf;fontStyle=1" vertex="1" parent="1">
          <mxGeometry x="240" y="370" width="94" height="94" as="geometry" />
        </mxCell>
        <mxCell id="f8Rt-xZDq5341HS5hOmq-40" style="edgeStyle=orthogonalEdgeStyle;rounded=0;orthogonalLoop=1;jettySize=auto;html=1;exitX=0.5;exitY=1;exitDx=0;exitDy=0;entryX=0.5;entryY=0;entryDx=0;entryDy=0;" edge="1" parent="1" source="f8Rt-xZDq5341HS5hOmq-17" target="f8Rt-xZDq5341HS5hOmq-18">
          <mxGeometry relative="1" as="geometry">
            <Array as="points">
              <mxPoint x="537" y="480" />
              <mxPoint x="414" y="480" />
            </Array>
          </mxGeometry>
        </mxCell>
        <mxCell id="f8Rt-xZDq5341HS5hOmq-17" value="T-INT-FUNC-06" style="ellipse;whiteSpace=wrap;html=1;aspect=fixed;fillColor=#dae8fc;strokeColor=#6c8ebf;fontStyle=1" vertex="1" parent="1">
          <mxGeometry x="490" y="370" width="94" height="94" as="geometry" />
        </mxCell>
        <mxCell id="f8Rt-xZDq5341HS5hOmq-41" style="edgeStyle=orthogonalEdgeStyle;rounded=0;orthogonalLoop=1;jettySize=auto;html=1;exitX=0.5;exitY=1;exitDx=0;exitDy=0;entryX=0.5;entryY=0;entryDx=0;entryDy=0;" edge="1" parent="1" source="f8Rt-xZDq5341HS5hOmq-18" target="f8Rt-xZDq5341HS5hOmq-19">
          <mxGeometry relative="1" as="geometry" />
        </mxCell>
        <mxCell id="f8Rt-xZDq5341HS5hOmq-18" value="T-INT-FUNC-07" style="ellipse;whiteSpace=wrap;html=1;aspect=fixed;fillColor=#d5e8d4;strokeColor=#82b366;fontStyle=1" vertex="1" parent="1">
          <mxGeometry x="367" y="500" width="94" height="94" as="geometry" />
        </mxCell>
        <mxCell id="f8Rt-xZDq5341HS5hOmq-42" style="edgeStyle=orthogonalEdgeStyle;rounded=0;orthogonalLoop=1;jettySize=auto;html=1;exitX=0.5;exitY=1;exitDx=0;exitDy=0;" edge="1" parent="1" source="f8Rt-xZDq5341HS5hOmq-19" target="f8Rt-xZDq5341HS5hOmq-20">
          <mxGeometry relative="1" as="geometry" />
        </mxCell>
        <mxCell id="f8Rt-xZDq5341HS5hOmq-43" style="edgeStyle=orthogonalEdgeStyle;rounded=0;orthogonalLoop=1;jettySize=auto;html=1;exitX=0.5;exitY=1;exitDx=0;exitDy=0;entryX=0.5;entryY=0;entryDx=0;entryDy=0;" edge="1" parent="1" source="f8Rt-xZDq5341HS5hOmq-19" target="f8Rt-xZDq5341HS5hOmq-21">
          <mxGeometry relative="1" as="geometry" />
        </mxCell>
        <mxCell id="f8Rt-xZDq5341HS5hOmq-19" value="T-INT-COM-01" style="ellipse;whiteSpace=wrap;html=1;aspect=fixed;fillColor=#d5e8d4;strokeColor=#82b366;fontStyle=1" vertex="1" parent="1">
          <mxGeometry x="367" y="630" width="94" height="94" as="geometry" />
        </mxCell>
        <mxCell id="f8Rt-xZDq5341HS5hOmq-44" style="edgeStyle=orthogonalEdgeStyle;rounded=0;orthogonalLoop=1;jettySize=auto;html=1;exitX=0.5;exitY=1;exitDx=0;exitDy=0;entryX=0.5;entryY=0;entryDx=0;entryDy=0;" edge="1" parent="1" source="f8Rt-xZDq5341HS5hOmq-20" target="f8Rt-xZDq5341HS5hOmq-23">
          <mxGeometry relative="1" as="geometry" />
        </mxCell>
        <mxCell id="f8Rt-xZDq5341HS5hOmq-45" style="edgeStyle=orthogonalEdgeStyle;rounded=0;orthogonalLoop=1;jettySize=auto;html=1;exitX=0.5;exitY=1;exitDx=0;exitDy=0;entryX=0.5;entryY=0;entryDx=0;entryDy=0;" edge="1" parent="1" source="f8Rt-xZDq5341HS5hOmq-20" target="f8Rt-xZDq5341HS5hOmq-24">
          <mxGeometry relative="1" as="geometry">
            <Array as="points">
              <mxPoint x="352" y="874" />
              <mxPoint x="541" y="874" />
            </Array>
          </mxGeometry>
        </mxCell>
        <mxCell id="f8Rt-xZDq5341HS5hOmq-20" value="T-INT-DIM-01" style="ellipse;whiteSpace=wrap;html=1;aspect=fixed;fillColor=#ffe6cc;strokeColor=#d79b00;fontStyle=1" vertex="1" parent="1">
          <mxGeometry x="305" y="760" width="94" height="94" as="geometry" />
        </mxCell>
        <mxCell id="f8Rt-xZDq5341HS5hOmq-46" style="edgeStyle=orthogonalEdgeStyle;rounded=0;orthogonalLoop=1;jettySize=auto;html=1;exitX=0.5;exitY=1;exitDx=0;exitDy=0;" edge="1" parent="1" source="f8Rt-xZDq5341HS5hOmq-21" target="f8Rt-xZDq5341HS5hOmq-22">
          <mxGeometry relative="1" as="geometry" />
        </mxCell>
        <mxCell id="f8Rt-xZDq5341HS5hOmq-21" value="T-INT-DIM-01" style="ellipse;whiteSpace=wrap;html=1;aspect=fixed;fillColor=#ffe6cc;strokeColor=#d79b00;fontStyle=1" vertex="1" parent="1">
          <mxGeometry x="428" y="760" width="94" height="94" as="geometry" />
        </mxCell>
        <mxCell id="f8Rt-xZDq5341HS5hOmq-47" style="edgeStyle=orthogonalEdgeStyle;rounded=0;orthogonalLoop=1;jettySize=auto;html=1;exitX=0.5;exitY=1;exitDx=0;exitDy=0;entryX=0.5;entryY=0;entryDx=0;entryDy=0;" edge="1" parent="1" source="f8Rt-xZDq5341HS5hOmq-22" target="f8Rt-xZDq5341HS5hOmq-25">
          <mxGeometry relative="1" as="geometry" />
        </mxCell>
        <mxCell id="f8Rt-xZDq5341HS5hOmq-22" value="T-INT-MEC-02" style="ellipse;whiteSpace=wrap;html=1;aspect=fixed;fillColor=#f8cecc;strokeColor=#b85450;fontStyle=1" vertex="1" parent="1">
          <mxGeometry x="371" y="890" width="94" height="94" as="geometry" />
        </mxCell>
        <mxCell id="f8Rt-xZDq5341HS5hOmq-48" style="edgeStyle=orthogonalEdgeStyle;rounded=0;orthogonalLoop=1;jettySize=auto;html=1;exitX=0.5;exitY=1;exitDx=0;exitDy=0;entryX=0.5;entryY=0;entryDx=0;entryDy=0;" edge="1" parent="1" source="f8Rt-xZDq5341HS5hOmq-23" target="f8Rt-xZDq5341HS5hOmq-25">
          <mxGeometry relative="1" as="geometry" />
        </mxCell>
        <mxCell id="f8Rt-xZDq5341HS5hOmq-23" value="T-INT-MEC-01" style="ellipse;whiteSpace=wrap;html=1;aspect=fixed;fillColor=#f8cecc;strokeColor=#b85450;fontStyle=1" vertex="1" parent="1">
          <mxGeometry x="244" y="890" width="94" height="94" as="geometry" />
        </mxCell>
        <mxCell id="f8Rt-xZDq5341HS5hOmq-49" style="edgeStyle=orthogonalEdgeStyle;rounded=0;orthogonalLoop=1;jettySize=auto;html=1;exitX=0.5;exitY=1;exitDx=0;exitDy=0;entryX=0.5;entryY=0;entryDx=0;entryDy=0;" edge="1" parent="1" source="f8Rt-xZDq5341HS5hOmq-24" target="f8Rt-xZDq5341HS5hOmq-25">
          <mxGeometry relative="1" as="geometry" />
        </mxCell>
        <mxCell id="f8Rt-xZDq5341HS5hOmq-24" value="T-INT-MEC-03" style="ellipse;whiteSpace=wrap;html=1;aspect=fixed;fillColor=#f8cecc;strokeColor=#b85450;fontStyle=1" vertex="1" parent="1">
          <mxGeometry x="494" y="890" width="94" height="94" as="geometry" />
        </mxCell>
        <mxCell id="f8Rt-xZDq5341HS5hOmq-50" style="edgeStyle=orthogonalEdgeStyle;rounded=0;orthogonalLoop=1;jettySize=auto;html=1;exitX=0.5;exitY=1;exitDx=0;exitDy=0;entryX=0.5;entryY=0;entryDx=0;entryDy=0;" edge="1" parent="1" source="f8Rt-xZDq5341HS5hOmq-25" target="f8Rt-xZDq5341HS5hOmq-26">
          <mxGeometry relative="1" as="geometry" />
        </mxCell>
        <mxCell id="f8Rt-xZDq5341HS5hOmq-25" value="T-INT-DATA-01" style="ellipse;whiteSpace=wrap;html=1;aspect=fixed;fillColor=#e1d5e7;strokeColor=#9673a6;fontStyle=1" vertex="1" parent="1">
          <mxGeometry x="371" y="1030" width="94" height="94" as="geometry" />
        </mxCell>
        <mxCell id="f8Rt-xZDq5341HS5hOmq-51" style="edgeStyle=orthogonalEdgeStyle;rounded=0;orthogonalLoop=1;jettySize=auto;html=1;exitX=0.5;exitY=1;exitDx=0;exitDy=0;entryX=0.5;entryY=0;entryDx=0;entryDy=0;" edge="1" parent="1" source="f8Rt-xZDq5341HS5hOmq-26" target="f8Rt-xZDq5341HS5hOmq-27">
          <mxGeometry relative="1" as="geometry" />
        </mxCell>
        <mxCell id="f8Rt-xZDq5341HS5hOmq-26" value="T-INT-DATA-03" style="ellipse;whiteSpace=wrap;html=1;aspect=fixed;fillColor=#e1d5e7;strokeColor=#9673a6;fontStyle=1" vertex="1" parent="1">
          <mxGeometry x="371" y="1160" width="94" height="94" as="geometry" />
        </mxCell>
        <mxCell id="f8Rt-xZDq5341HS5hOmq-27" value="T-INT-DATA-03" style="ellipse;whiteSpace=wrap;html=1;aspect=fixed;fillColor=#e1d5e7;strokeColor=#9673a6;fontStyle=1" vertex="1" parent="1">
          <mxGeometry x="371" y="1290" width="94" height="94" as="geometry" />
        </mxCell>
      </root>
    </mxGraphModel>
  </diagram>
</mxfile>
